nColumns=19
nRows=107
DataType=double
version=3
OpenSimVersion=4.1
endheader
time	ground_force_1_vx	ground_force_1_vy	ground_force_1_vz	ground_force_1_px	ground_force_1_py	ground_force_1_pz	ground_force_1_mx	ground_force_1_my	ground_force_1_mz	ground_force_2_vx	ground_force_2_vy	ground_force_2_vz	ground_force_2_px	ground_force_2_py	ground_force_2_pz	ground_force_2_mx	ground_force_2_my	ground_force_2_mz
0.133333	0	0	0	-0.00177227	0	4.11032e-05	0	0	0	0	0	0	-0.00177227	0	4.11032e-05	0	0	0
0.141667	-18.0337	140.93	-4.96869	0.98188	0	-0.304225	-0	4.26487	-0	0	0	0	-0.00177227	0	4.11032e-05	0	0	0
0.15	-14.1714	284.587	-4.93769	1.00766	0	-0.30908	-0	3.72239	-0	0	0	0	-0.00177227	0	4.11031e-05	0	0	0
0.158333	-4.83323	494.101	1.28197	1.00752	0	-0.311849	-0	2.45857	-0	0	0	0	-0.00177227	0	4.1103e-05	0	0	0
0.166667	-4.0728	705.132	13.7965	1.00193	0	-0.312647	-0	0.741837	-0	0	0	0	-0.00177227	0	4.11028e-05	0	0	0
0.175	-21.9083	843.844	26.8035	0.997311	0	-0.313005	0	-1.00371	0	0	0	0	-0.00177227	0	4.11026e-05	0	0	0
0.183333	-52.5738	899.634	31.8746	0.994267	0	-0.314087	0	-2.35074	0	0	0	0	-0.00177228	0	4.11023e-05	0	0	0
0.191667	-84.6401	919.449	25.8001	0.990346	0	-0.315698	0	-3.0303	0	0	0	0	-0.00177228	0	4.11019e-05	0	0	0
0.2	-110.816	949.901	14.0901	0.984058	0	-0.316443	0	-3.00767	0	0	0	0	-0.00177228	0	4.11015e-05	0	0	0
0.208333	-127.268	1007.28	5.13976	0.976519	0	-0.315461	0	-2.43515	0	0	0	0	-0.00177228	0	4.11011e-05	0	0	0
0.216667	-133.696	1084.25	1.61362	0.968092	0	-0.313607	0	-1.53483	0	0	0	0	-0.00177228	0	4.11006e-05	0	0	0
0.225	-130.574	1164.27	-0.788646	0.95795	0	-0.312148	0	-0.502394	0	0	0	0	-0.00177228	0	4.11e-05	0	0	0
0.233333	-119.685	1232.74	-6.60197	0.946486	0	-0.311432	-0	0.524248	-0	0	0	0	-0.00177228	0	4.10994e-05	0	0	0
0.241667	-107.432	1285.23	-15.1226	0.9351	0	-0.310894	-0	1.45622	-0	0	0	0	-0.00177228	0	4.10988e-05	0	0	0
0.25	-98.4663	1326.08	-22.5251	0.92432	0	-0.309769	-0	2.24623	-0	0	0	0	-0.00177228	0	4.10981e-05	0	0	0
0.258333	-91.3712	1359.71	-27.3122	0.913625	0	-0.308017	-0	2.88947	-0	0	0	0	-0.00177228	0	4.10973e-05	0	0	0
0.266667	-83.7748	1386.06	-31.364	0.902792	0	-0.306364	-0	3.41343	-0	0	0	0	-0.00177228	0	4.10965e-05	0	0	0
0.275	-75.5739	1403.37	-36.2162	0.892012	0	-0.305274	-0	3.85137	-0	0	0	0	-0.00177228	0	4.10956e-05	0	0	0
0.283333	-66.8368	1413.05	-40.7615	0.881095	0	-0.30441	-0	4.21829	-0	0	0	0	-0.00177228	0	4.10947e-05	0	0	0
0.291667	-55.8717	1418.79	-43.2383	0.869638	0	-0.303325	-0	4.50585	-0	0	0	0	-0.00177228	0	4.10937e-05	0	0	0
0.3	-42.2097	1420.58	-43.6457	0.857835	0	-0.302164	-0	4.69097	-0	0	0	0	-0.00177229	0	4.10927e-05	0	0	0
0.308333	-27.68	1414.01	-43.0437	0.846305	0	-0.301267	-0	4.74376	-0	0	0	0	-0.00177229	0	4.10916e-05	0	0	0
0.316667	-14.1777	1395.32	-41.5855	0.835278	0	-0.300684	-0	4.63191	-0	0	0	0	-0.00177229	0	4.10905e-05	0	0	0
0.325	-2.04257	1364.3	-38.4096	0.824454	0	-0.300286	-0	4.32773	-0	0	0	0	-0.00177229	0	4.10893e-05	0	0	0
0.333333	9.21081	1322.08	-32.9855	0.813565	0	-0.300016	-0	3.81958	-0	0	0	0	-0.00177229	0	4.10881e-05	0	0	0
0.341667	20.2247	1269.83	-25.7574	0.802644	0	-0.299975	-0	3.12152	-0	0	0	0	-0.00177229	0	4.10868e-05	0	0	0
0.35	32.6051	1209.77	-17.5574	0.791499	0	-0.300263	-0	2.27511	-0	0	0	0	-0.00177229	0	4.10855e-05	0	0	0
0.358333	47.5766	1144.12	-8.89422	0.779644	0	-0.30084	-0	1.34398	-0	0	0	0	-0.0017723	0	4.10841e-05	0	0	0
0.366667	63.8597	1073.93	0.002412	0.767108	0	-0.301541	-0	0.405231	-0	0	0	0	-0.0017723	0	4.10827e-05	0	0	0
0.375	78.8115	999.349	8.66492	0.75429	0	-0.302212	0	-0.46026	0	0	0	0	-0.0017723	0	4.10812e-05	0	0	0
0.383333	90.9391	920.203	16.2094	0.741296	0	-0.302845	0	-1.17902	0	0	0	0	-0.0017723	0	4.10796e-05	0	0	0
0.391667	99.8912	837.016	21.8034	0.728019	0	-0.303543	0	-1.69706	0	0	0	0	-0.0017723	0	4.10781e-05	0	0	0
0.4	105.228	751.18	25.2409	0.714411	0	-0.304311	0	-1.98906	0	0	0	0	-0.0017723	0	4.10764e-05	0	0	0
0.408333	106.714	664.914	26.9013	0.70057	0	-0.304883	0	-2.06038	0	0	0	0	-0.00177231	0	4.10748e-05	0	0	0
0.416667	104.919	580.487	27.1837	0.686684	0	-0.304847	0	-1.94197	0	0	0	0	-0.00177231	0	4.1073e-05	0	0	0
0.425	100.463	498.569	26.1848	0.673143	0	-0.304123	0	-1.68169	0	0	0	0	-0.00177231	0	4.10713e-05	0	0	0
0.433333	93.4509	419.385	23.96	0.660517	0	-0.303065	0	-1.3354	0	0	0	0	-0.00177231	0	4.10694e-05	0	0	0
0.441667	84.2424	344.482	20.91	0.648955	0	-0.30189	0	-0.957908	0	0	0	0	-0.00177231	0	4.10676e-05	0	0	0
0.45	73.658	275.792	17.6862	0.638344	0	-0.300297	0	-0.593859	0	0	0	0	-0.00177232	0	4.10657e-05	0	0	0
0.458333	61.9339	214.508	14.6765	0.629281	0	-0.297798	0	-0.270711	0	0	0	0	-0.00177232	0	4.10637e-05	0	0	0
0.466667	49.4078	161.274	11.7728	0.623021	0	-0.294144	-0	0.002125	-0	0	0	0	-0.00177232	0	4.10617e-05	0	0	0
0.475	37.4629	116.32	8.74188	0.620158	0	-0.288984	-0	0.226844	-0	0	0	0	-0.00177232	0	4.10596e-05	0	0	0
0.483333	27.1491	79.6769	5.69747	0.621498	0	-0.281587	-0	0.407456	-0	0	0	0	-0.00177233	0	4.10575e-05	0	0	0
0.491667	0	0	0	-0.00177234	0	4.10813e-05	0	0	0	0	0	0	-0.00177233	0	4.10554e-05	0	0	0
0.5	0	0	0	-0.00177234	0	4.10803e-05	0	0	0	0	0	0	-0.00177233	0	4.10532e-05	0	0	0
0.508333	0	0	0	-0.00177234	0	4.10792e-05	0	0	0	0	0	0	-0.00177233	0	4.10509e-05	0	0	0
0.516667	0	0	0	-0.00177234	0	4.10782e-05	0	0	0	0	0	0	-0.00177234	0	4.10487e-05	0	0	0
0.525	0	0	0	-0.00177235	0	4.10771e-05	0	0	0	0	0	0	-0.00177234	0	4.10463e-05	0	0	0
0.533333	0	0	0	-0.00177235	0	4.1076e-05	0	0	0	0	0	0	-0.00177234	0	4.1044e-05	0	0	0
0.541667	0	0	0	-0.00177235	0	4.10749e-05	0	0	0	0	0	0	-0.00177234	0	4.10415e-05	0	0	0
0.55	0	0	0	-0.00177236	0	4.10738e-05	0	0	0	0	0	0	-0.00177235	0	4.10391e-05	0	0	0
0.558333	0	0	0	-0.00177236	0	4.10726e-05	0	0	0	-20.1781	148.929	-2.0052	0.999292	0	-0.360069	0	-0.391508	0
0.566667	0	0	0	-0.00177236	0	4.10715e-05	0	0	0	-18.0489	316.628	-0.78405	1.00175	0	-0.357245	0	-0.246486	0
0.575	0	0	0	-0.00177237	0	4.10703e-05	0	0	0	-9.80173	554.74	1.57636	0.997045	0	-0.352164	-0	0.226565	-0
0.583333	0	0	0	-0.00177237	0	4.10691e-05	0	0	0	-6.57559	790.91	2.58181	0.990163	0	-0.347818	-0	1.03479	-0
0.591667	0	0	0	-0.00177237	0	4.10678e-05	0	0	0	-18.8449	939.714	-1.16471	0.984857	0	-0.345405	-0	2.06351	-0
0.6	0	0	0	-0.00177238	0	4.10666e-05	0	0	0	-44.8116	990.17	-9.64179	0.98187	0	-0.34574	-0	3.07929	-0
0.608333	0	0	0	-0.00177238	0	4.10653e-05	0	0	0	-76.1886	1002.06	-16.4365	0.978403	0	-0.348289	-0	3.80696	-0
0.616667	0	0	0	-0.00177238	0	4.1064e-05	0	0	0	-106.636	1031.4	-13.411	0.97324	0	-0.350081	-0	4.05707	-0
0.625	0	0	0	-0.00177239	0	4.10627e-05	0	0	0	-129.781	1091.34	-0.292333	0.96743	0	-0.349288	-0	3.8224	-0
0.633333	0	0	0	-0.00177239	0	4.10614e-05	0	0	0	-140.484	1165.66	13.2945	0.959977	0	-0.348071	-0	3.26462	-0
0.641667	0	0	0	-0.00177239	0	4.10601e-05	0	0	0	-136.002	1234.17	18.3724	0.949678	0	-0.348776	-0	2.59881	-0
0.65	0	0	0	-0.0017724	0	4.10587e-05	0	0	0	-120.65	1287.41	16.9656	0.937836	0	-0.350762	-0	1.97463	-0
0.658333	0	0	0	-0.0017724	0	4.10574e-05	0	0	0	-105.956	1326.87	18.3437	0.92645	0	-0.351991	-0	1.44431	-0
0.666667	0	0	0	-0.00177241	0	4.1056e-05	0	0	0	-96.2003	1355.01	26.4423	0.915799	0	-0.351849	-0	1.00815	-0
0.675	0	0	0	-0.00177241	0	4.10546e-05	0	0	0	-86.6133	1369.24	35.5841	0.904968	0	-0.351794	-0	0.657373	-0
0.683333	0	0	0	-0.00177241	0	4.10532e-05	0	0	0	-74.4801	1366.37	39.3043	0.893492	0	-0.353184	-0	0.370906	-0
0.691667	0	0	0	-0.00177242	0	4.10517e-05	0	0	0	-62.3556	1349.84	38.9504	0.881887	0	-0.355409	-0	0.1006	-0
0.7	0	0	0	-0.00177242	0	4.10503e-05	0	0	0	-52.2853	1327.89	40.5729	0.87079	0	-0.356803	0	-0.208001	0
0.708333	0	0	0	-0.00177243	0	4.10488e-05	0	0	0	-41.4388	1304.72	45.9605	0.859917	0	-0.356878	0	-0.571166	0
0.716667	0	0	0	-0.00177243	0	4.10473e-05	0	0	0	-27.7347	1276.59	50.6986	0.84882	0	-0.356821	0	-0.949125	0
0.725	0	0	0	-0.00177243	0	4.10458e-05	0	0	0	-13.3298	1237.87	50.7014	0.837717	0	-0.357627	0	-1.2731	0
0.733333	0	0	0	-0.00177244	0	4.10443e-05	0	0	0	-0.96583	1189.46	47.0566	0.827055	0	-0.358686	0	-1.48382	0
0.741667	0	0	0	-0.00177244	0	4.10428e-05	0	0	0	9.17558	1137.27	43.1379	0.816933	0	-0.358804	0	-1.54609	0
0.75	0	0	0	-0.00177245	0	4.10412e-05	0	0	0	19.4948	1084.3	39.5102	0.806914	0	-0.357856	0	-1.44368	0
0.758333	0	0	0	-0.00177245	0	4.10396e-05	0	0	0	31.2613	1028.24	33.9315	0.796547	0	-0.356759	0	-1.17916	0
0.766667	0	0	0	-0.00177246	0	4.10381e-05	0	0	0	43.4427	967.599	25.3393	0.785687	0	-0.356064	0	-0.783736	0
0.775	0	0	0	-0.00177246	0	4.10365e-05	0	0	0	54.9839	905.305	15.6607	0.774342	0	-0.355302	0	-0.318743	0
0.783333	0	0	0	-0.00177246	0	4.10349e-05	0	0	0	65.7266	844.771	7.5101	0.762436	0	-0.353757	-0	0.142296	-0
0.791667	0	0	0	-0.00177247	0	4.10333e-05	0	0	0	75.5428	786.297	1.48696	0.750049	0	-0.351488	-0	0.538066	-0
0.8	0	0	0	-0.00177247	0	4.10316e-05	0	0	0	83.4692	727.48	-3.58459	0.737499	0	-0.349406	-0	0.830556	-0
0.808333	0	0	0	-0.00177248	0	4.103e-05	0	0	0	89.0552	666.722	-8.43006	0.724669	0	-0.348168	-0	0.999615	-0
0.816667	0	0	0	-0.00177248	0	4.10283e-05	0	0	0	92.8321	605.844	-12.2187	0.711283	0	-0.347344	-0	1.03435	-0
0.825	0	0	0	-0.00177249	0	4.10267e-05	0	0	0	95.1373	547.907	-13.7108	0.697605	0	-0.346073	-0	0.932622	-0
0.833333	0	0	0	-0.00177249	0	4.1025e-05	0	0	0	95.9524	493.475	-12.8881	0.68405	0	-0.344224	-0	0.705512	-0
0.841667	0	0	0	-0.0017725	0	4.10233e-05	0	0	0	95.0797	440.905	-11.0096	0.671032	0	-0.342558	-0	0.377406	-0
0.85	0	0	0	-0.0017725	0	4.10216e-05	0	0	0	92.6939	389.61	-9.24592	0.658912	0	-0.341742	0	-0.020425	0
0.858333	0	0	0	-0.00177251	0	4.10199e-05	0	0	0	89.4651	340.659	-7.69573	0.647055	0	-0.341525	0	-0.454833	0
0.866667	0	0	0	-0.00177251	0	4.10181e-05	0	0	0	85.8454	295.17	-5.80471	0.63456	0	-0.341107	0	-0.887777	0
0.875	0	0	0	-0.00177252	0	4.10164e-05	0	0	0	81.3374	253.294	-3.43	0.622397	0	-0.340118	0	-1.2686	0
0.883333	0	0	0	-0.00177252	0	4.10146e-05	0	0	0	75.0281	214.242	-1.17802	0.611737	0	-0.339089	0	-1.53157	0
0.891667	0	0	0	-0.00177253	0	4.10129e-05	0	0	0	66.8816	177.679	0.318335	0.601491	0	-0.338616	0	-1.60501	0
0.9	0	0	0	-0.00177253	0	4.10111e-05	0	0	0	57.3221	144.623	1.09946	0.591045	0	-0.338075	0	-1.4301	0
0.908333	0	0	0	-0.00177254	0	4.10093e-05	0	0	0	46.1126	116.448	1.5983	0.584418	0	-0.335546	0	-0.982807	0
0.916667	0	0	0	-0.00177254	0	4.10076e-05	0	0	0	33.1265	93.7542	1.90236	0.589843	0	-0.329053	0	-0.294085	0
0.925	0	0	0	-0.00177255	0	4.10058e-05	0	0	0	18.4994	77.3111	1.60903	0.626395	0	-0.317825	-0	0.536322	-0
0.933333	0	0	0	-0.00177255	0	4.10039e-05	0	0	0	0	0	0	-0.00177252	0	4.0887e-05	0	0	0
0.941667	-12.3937	97.3267	-1.80166	0.897123	0	-0.286799	-0	1.9113	-0	0	0	0	-0.00177252	0	4.08831e-05	0	0	0
0.95	-21.4457	179.876	-3.83053	0.993074	0	-0.281406	-0	2.05154	-0	0	0	0	-0.00177253	0	4.08791e-05	0	0	0
0.958333	-19.6959	338.771	-4.01914	1.01838	0	-0.280906	-0	1.6501	-0	0	0	0	-0.00177253	0	4.08751e-05	0	0	0
0.966667	-12.8702	543.436	-0.954172	1.01989	0	-0.280958	-0	0.738441	-0	0	0	0	-0.00177253	0	4.08711e-05	0	0	0
0.975	-15.3966	716.964	4.54912	1.01648	0	-0.281208	0	-0.494749	0	0	0	0	-0.00177254	0	4.08671e-05	0	0	0
0.983333	-34.0836	807.102	8.8843	1.01405	0	-0.281944	0	-1.7548	0	0	0	0	-0.00177254	0	4.0863e-05	0	0	0
0.991667	-63.2131	835.381	8.07124	1.01329	0	-0.282827	0	-2.74319	0	0	0	0	-0.00177255	0	4.0859e-05	0	0	0
1	-93.2032	856.537	1.26947	1.0113	0	-0.283024	0	-3.26184	0	0	0	0	-0.00177255	0	4.08549e-05	0	0	0
1.00833	-114.181	899.544	-8.45662	1.00608	0	-0.28209	0	-3.26532	0	0	0	0	-0.00177256	0	4.08508e-05	0	0	0
1.01667	-123.067	961.978	-17.1529	0.99853	0	-0.280524	0	-2.84123	0	0	0	0	-0.00177256	0	4.08467e-05	0	0	0
